<svg width="56" height="56" viewBox="0 0 56 56" fill="none" xmlns="http://www.w3.org/2000/svg">
<path d="M51.3333 28C51.3333 40.8866 40.8866 51.3333 28 51.3333M51.3333 28C51.3333 15.1133 40.8866 4.66663 28 4.66663M51.3333 28H4.66663M28 51.3333C15.1133 51.3333 4.66663 40.8866 4.66663 28M28 51.3333C33.8363 44.9438 37.153 36.6519 37.3333 28C37.153 19.348 33.8363 11.0561 28 4.66663M28 51.3333C22.1636 44.9438 18.8469 36.6519 18.6666 28C18.8469 19.348 22.1636 11.0561 28 4.66663M4.66663 28C4.66663 15.1133 15.1133 4.66663 28 4.66663" stroke="#DA291C" stroke-width="4" stroke-linecap="round" stroke-linejoin="round"/>
</svg>
