<svg width="56" height="56" viewBox="0 0 56 56" fill="none" xmlns="http://www.w3.org/2000/svg">
<path d="M49 23.3334C49 39.6667 28 53.6667 28 53.6667C28 53.6667 7 39.6667 7 23.3334C7 17.7638 9.21249 12.4224 13.1508 8.48413C17.089 4.54587 22.4305 2.33337 28 2.33337C33.5695 2.33337 38.911 4.54587 42.8492 8.48413C46.7875 12.4224 49 17.7638 49 23.3334Z" stroke="#DA291C" stroke-width="4" stroke-linecap="round" stroke-linejoin="round"/>
<path d="M28 30.3334C31.866 30.3334 35 27.1994 35 23.3334C35 19.4674 31.866 16.3334 28 16.3334C24.134 16.3334 21 19.4674 21 23.3334C21 27.1994 24.134 30.3334 28 30.3334Z" stroke="#DA291C" stroke-width="4" stroke-linecap="round" stroke-linejoin="round"/>
</svg>
