<svg width="57" height="56" viewBox="0 0 57 56" fill="none" xmlns="http://www.w3.org/2000/svg">
<path d="M50.1566 37.077C48.6722 40.5874 46.3504 43.6808 43.3943 46.0867C40.4382 48.4926 36.9377 50.1377 33.199 50.8781C29.4602 51.6186 25.5969 51.432 21.947 50.3345C18.297 49.237 14.9714 47.2622 12.261 44.5825C9.55058 41.9029 7.53784 38.6001 6.39876 34.9629C5.25967 31.3257 5.02892 27.4648 5.72667 23.7178C6.42442 19.9708 8.02943 16.4518 10.4014 13.4684C12.7733 10.485 15.84 8.12807 19.3333 6.60366M51.9999 28.0003C51.9999 24.9361 51.3964 21.902 50.2238 19.071C49.0512 16.2401 47.3325 13.6679 45.1658 11.5012C42.9991 9.33447 40.4268 7.61575 37.5959 6.44314C34.765 5.27053 31.7308 4.66699 28.6666 4.66699V28.0003H51.9999Z" stroke="#DA291C" stroke-width="4" stroke-linecap="round" stroke-linejoin="round"/>
</svg>
