<svg width="96" height="96" viewBox="0 0 96 96" fill="none" xmlns="http://www.w3.org/2000/svg">
<line x1="0.5" x2="0.5" y2="96" stroke="black"/>
<path fill-rule="evenodd" clip-rule="evenodd" d="M32 67C32 68.1046 32.8954 69 34 69H62C63.1046 69 64 68.1046 64 67V66.6668V54.3333V41.6667V29.3335V29C64 27.8954 63.1046 27 62 27H34C32.8954 27 32 27.8954 32 29V29.3335V41.6667V54.3333V66.6668V67ZM45.3333 65H50.6667V56.3333H45.3333V65ZM45.3333 52.3333H50.6667V43.6667H45.3333V52.3333ZM41.3333 43.6667V52.3333H36V43.6667H41.3333ZM45.3333 39.6667H50.6667V31H45.3333V39.6667ZM36 31.3335V39.6667H41.3333V31.3335H36ZM60 31.3335H54.6667V39.6667H60V31.3335ZM60 43.6667H54.6667V52.3333H60V43.6667ZM60 56.3333H54.6667V64.6668H60V56.3333ZM36 56.3333H41.3333V64.6668H36V56.3333Z" fill="#DA291C"/>
</svg>
