<svg width="56" height="56" viewBox="0 0 56 56" fill="none" xmlns="http://www.w3.org/2000/svg">
<path d="M37.3333 37.3333V7H2.33331V37.3333H37.3333ZM37.3333 37.3333H53.6666V25.6667L46.6666 18.6667H37.3333V37.3333ZM18.6666 43.1667C18.6666 46.3883 16.055 49 12.8333 49C9.61165 49 6.99998 46.3883 6.99998 43.1667C6.99998 39.945 9.61165 37.3333 12.8333 37.3333C16.055 37.3333 18.6666 39.945 18.6666 43.1667ZM49 43.1667C49 46.3883 46.3883 49 43.1666 49C39.945 49 37.3333 46.3883 37.3333 43.1667C37.3333 39.945 39.945 37.3333 43.1666 37.3333C46.3883 37.3333 49 39.945 49 43.1667Z" stroke="#DA291C" stroke-width="4" stroke-linecap="round" stroke-linejoin="round"/>
</svg>
