<svg width="32" height="42" viewBox="0 0 32 42" fill="none" xmlns="http://www.w3.org/2000/svg">
<path fill-rule="evenodd" clip-rule="evenodd" d="M0 40C0 41.1046 0.89543 42 2 42H30C31.1046 42 32 41.1046 32 40V39.6668V27.3333V14.6667V2.3335V2C32 0.895428 31.1046 0 30 0H2C0.89543 0 0 0.895428 0 2V2.3335V14.6667V27.3333V39.6668V40ZM13.3333 38H18.6667V29.3333H13.3333V38ZM13.3333 25.3333H18.6667V16.6667H13.3333V25.3333ZM9.33333 16.6667V25.3333H4V16.6667H9.33333ZM13.3333 12.6667H18.6667V4H13.3333V12.6667ZM4 4.3335V12.6667H9.33333V4.3335H4ZM28 4.3335H22.6667V12.6667H28V4.3335ZM28 16.6667H22.6667V25.3333H28V16.6667ZM28 29.3333H22.6667V37.6668H28V29.3333ZM4 29.3333H9.33333V37.6668H4V29.3333Z" fill="#DA291C"/>
</svg>
