<svg width="56" height="56" viewBox="0 0 56 56" fill="none" xmlns="http://www.w3.org/2000/svg">
<path d="M39.6667 49V44.3333C39.6667 41.858 38.6833 39.484 36.933 37.7337C35.1827 35.9833 32.8087 35 30.3333 35H11.6667C9.19132 35 6.81735 35.9833 5.06701 37.7337C3.31667 39.484 2.33334 41.858 2.33334 44.3333V49M53.6667 49V44.3333C53.6651 42.2654 52.9768 40.2565 51.7099 38.6221C50.4429 36.9877 48.669 35.8203 46.6667 35.3033M37.3333 7.30333C39.341 7.81737 41.1204 8.98497 42.3912 10.6221C43.6619 12.2591 44.3516 14.2726 44.3516 16.345C44.3516 18.4174 43.6619 20.4309 42.3912 22.0679C41.1204 23.705 39.341 24.8726 37.3333 25.3867M30.3333 16.3333C30.3333 21.488 26.1547 25.6667 21 25.6667C15.8454 25.6667 11.6667 21.488 11.6667 16.3333C11.6667 11.1787 15.8454 7 21 7C26.1547 7 30.3333 11.1787 30.3333 16.3333Z" stroke="#DA291C" stroke-width="4" stroke-linecap="round" stroke-linejoin="round"/>
</svg>
