<svg width="80" height="80" viewBox="0 0 80 80" fill="none" xmlns="http://www.w3.org/2000/svg">
<path d="M53.3333 70V63.3333C53.3333 59.7971 51.9286 56.4057 49.4281 53.9052C46.9276 51.4048 43.5362 50 40 50H16.6666C13.1304 50 9.73904 51.4048 7.23856 53.9052C4.73807 56.4057 3.33331 59.7971 3.33331 63.3333V70M76.6666 36.6667H56.6666M41.6666 23.3333C41.6666 30.6971 35.6971 36.6667 28.3333 36.6667C20.9695 36.6667 15 30.6971 15 23.3333C15 15.9695 20.9695 10 28.3333 10C35.6971 10 41.6666 15.9695 41.6666 23.3333Z" stroke="black" stroke-width="4" stroke-linecap="round" stroke-linejoin="round"/>
</svg>
