<svg width="78" height="64" viewBox="0 0 78 64" fill="none" xmlns="http://www.w3.org/2000/svg">
<path d="M52.3333 62V55.3333C52.3333 51.7971 50.9286 48.4057 48.4281 45.9052C45.9276 43.4048 42.5362 42 39 42H15.6666C12.1304 42 8.73904 43.4048 6.23856 45.9052C3.73807 48.4057 2.33331 51.7971 2.33331 55.3333V62M65.6666 18.6667V38.6667M75.6666 28.6667H55.6666M40.6666 15.3333C40.6666 22.6971 34.6971 28.6667 27.3333 28.6667C19.9695 28.6667 14 22.6971 14 15.3333C14 7.96954 19.9695 2 27.3333 2C34.6971 2 40.6666 7.96954 40.6666 15.3333Z" stroke="black" stroke-width="4" stroke-linecap="round" stroke-linejoin="round"/>
</svg>
