<svg width="56" height="56" viewBox="0 0 56 56" fill="none" xmlns="http://www.w3.org/2000/svg">
<path d="M37.3333 49V44.3333C37.3333 41.858 36.35 39.484 34.5997 37.7337C32.8493 35.9833 30.4754 35 28 35H11.6667C9.19131 35 6.81734 35.9833 5.067 37.7337C3.31666 39.484 2.33333 41.858 2.33333 44.3333V49M46.6667 18.6667V32.6667M53.6667 25.6667H39.6667M29.1667 16.3333C29.1667 21.488 24.988 25.6667 19.8333 25.6667C14.6787 25.6667 10.5 21.488 10.5 16.3333C10.5 11.1787 14.6787 7 19.8333 7C24.988 7 29.1667 11.1787 29.1667 16.3333Z" stroke="#DA291C" stroke-width="4" stroke-linecap="round" stroke-linejoin="round"/>
</svg>
