<svg width="226" height="56" viewBox="0 0 226 56" fill="none" xmlns="http://www.w3.org/2000/svg">
<rect x="225.5" width="56" height="8" transform="rotate(90 225.5 0)" fill="#DA291C"/>
<rect x="212.5" width="56" height="3" transform="rotate(90 212.5 0)" fill="#DA291C"/>
<rect x="204.5" width="56" height="5" transform="rotate(90 204.5 0)" fill="#DA291C"/>
<rect x="194.5" width="56" height="1" transform="rotate(90 194.5 0)" fill="#DA291C"/>
<rect x="188.5" width="56" height="3" transform="rotate(90 188.5 0)" fill="#DA291C"/>
<rect x="180.5" width="56" height="8" transform="rotate(90 180.5 0)" fill="#DA291C"/>
<rect x="167.5" width="56" height="3" transform="rotate(90 167.5 0)" fill="#DA291C"/>
<rect x="159.5" width="56" height="5" transform="rotate(90 159.5 0)" fill="#DA291C"/>
<rect x="149.5" width="56" height="4" transform="rotate(90 149.5 0)" fill="#DA291C"/>
<rect x="140.5" width="56" height="5" transform="rotate(90 140.5 0)" fill="#DA291C"/>
<rect x="130.5" width="56" height="8" transform="rotate(90 130.5 0)" fill="#DA291C"/>
<rect x="117.5" width="56" height="1" transform="rotate(90 117.5 0)" fill="#DA291C"/>
<rect x="111.5" width="56" height="5" transform="rotate(90 111.5 0)" fill="#DA291C"/>
<rect x="101.5" width="56" height="3" transform="rotate(90 101.5 0)" fill="#DA291C"/>
<rect x="93.5" width="56" height="8" transform="rotate(90 93.5 0)" fill="#DA291C"/>
<rect x="80.5" width="56" height="3" transform="rotate(90 80.5 0)" fill="#DA291C"/>
<rect x="72.5" width="56" height="5" transform="rotate(90 72.5 0)" fill="#DA291C"/>
<rect x="62.5" width="56" height="5" transform="rotate(90 62.5 0)" fill="#DA291C"/>
<rect x="52.5" width="56" height="3" transform="rotate(90 52.5 0)" fill="#DA291C"/>
<rect x="44.5" width="56" height="8" transform="rotate(90 44.5 0)" fill="#DA291C"/>
<rect x="31.5" width="56" height="3" transform="rotate(90 31.5 0)" fill="#DA291C"/>
<rect x="23.5" width="56" height="5" transform="rotate(90 23.5 0)" fill="#DA291C"/>
<rect x="13.5" width="56" height="5" transform="rotate(90 13.5 0)" fill="#DA291C"/>
<rect x="3.5" width="56" height="3" transform="rotate(90 3.5 0)" fill="#DA291C"/>
</svg>
