<svg xmlns="http://www.w3.org/2000/svg" xmlns:xlink="http://www.w3.org/1999/xlink" viewBox="0,0,256,256" width="32px" height="32px" fill-rule="nonzero"><g fill="#ff0000" fill-rule="nonzero" stroke="none" stroke-width="1" stroke-linecap="butt" stroke-linejoin="miter" stroke-miterlimit="10" stroke-dasharray="" stroke-dashoffset="0" font-family="none" font-weight="none" font-size="none" text-anchor="none" style="mix-blend-mode: normal"><g transform="scale(2,2)"><path d="M64,6c-32,0 -58,26 -58,58c0,32 26,58 58,58c32,0 58,-26 58,-58c0,-32 -26,-58 -58,-58zM64,12c28.7,0 52,23.3 52,52c0,28.7 -23.3,52 -52,52c-28.7,0 -52,-23.3 -52,-52c0,-28.7 23.3,-52 52,-52zM64,30c-4.97056,0 -9,4.02944 -9,9c0,4.97056 4.02944,9 9,9c4.97056,0 9,-4.02944 9,-9c0,-4.97056 -4.02944,-9 -9,-9zM64,59c-5,0 -9,4 -9,9v24c0,5 4,9 9,9c5,0 9,-4 9,-9v-24c0,-5 -4,-9 -9,-9z"></path></g></g></svg>