<svg width="150" height="150" viewBox="0 0 150 150" fill="none" xmlns="http://www.w3.org/2000/svg">
<path d="M88.2742 121.753V90.6089H61.7993V121.753H41.5574L66.1145 146.31C68.4827 148.673 71.6914 150 75.0367 150C78.382 150 81.5907 148.673 83.959 146.31L108.516 121.753H88.2742ZM28.3408 108.516V41.5574L3.78378 66.1144C2.59881 67.2786 1.65761 68.6672 1.01513 70.1991C0.372645 71.731 0.041748 73.3755 0.041748 75.0367C0.041748 76.6978 0.372645 78.3424 1.01513 79.8743C1.65761 81.4062 2.59881 82.7947 3.78378 83.9589L28.3408 108.516ZM61.695 28.3408V59.4644H88.2742V28.3408H108.516L83.8964 3.74203C82.7322 2.55706 81.3437 1.61586 79.8118 0.973381C78.2799 0.330897 76.6354 0 74.9742 0C73.313 0 71.6685 0.330897 70.1366 0.973381C68.6047 1.61586 67.2161 2.55706 66.0519 3.74203L41.5574 28.3408H61.695ZM146.311 66.1144L121.753 41.5574V108.516L146.311 83.9589C148.673 81.5906 150 78.3819 150 75.0367C150 71.6914 148.673 68.4827 146.311 66.1144Z" fill="#DA291C"/>
</svg>
