<svg width="56" height="56" viewBox="0 0 56 56" fill="none" xmlns="http://www.w3.org/2000/svg">
<path d="M32.9557 45.4546V33.8273H23.0717V45.4546H15.5147L24.6827 54.6226C25.5669 55.5046 26.7648 56 28.0137 56C29.2626 56 30.4605 55.5046 31.3447 54.6226L40.5126 45.4546H32.9557ZM10.5806 40.5126V15.5148L1.41259 24.6827C0.9702 25.1173 0.61882 25.6357 0.37896 26.2076C0.139099 26.7796 0.015564 27.3935 0.015564 28.0137C0.015564 28.6339 0.139099 29.2478 0.37896 29.8197C0.61882 30.3916 0.9702 30.91 1.41259 31.3447L10.5806 40.5126ZM23.0328 10.5806V22.2H32.9557V10.5806H40.5126L31.3213 1.39702C30.8867 0.954636 30.3683 0.603256 29.7964 0.363396C29.2245 0.123535 28.6105 0 27.9903 0C27.3702 0 26.7562 0.123535 26.1843 0.363396C25.6124 0.603256 25.094 0.954636 24.6594 1.39702L15.5147 10.5806H23.0328ZM54.6226 24.6827L45.4546 15.5148V40.5126L54.6226 31.3447C55.5046 30.4605 56 29.2626 56 28.0137C56 26.7648 55.5046 25.5669 54.6226 24.6827Z" fill="#DA291C"/>
</svg>
