<svg width="80" height="80" viewBox="0 0 80 80" fill="none" xmlns="http://www.w3.org/2000/svg">
<path d="M9.30004 27.034C11.4206 22.019 14.7374 17.5999 18.9604 14.163C23.1835 10.726 28.1841 8.37589 33.5252 7.31804C38.8664 6.2602 44.3853 6.52684 49.5996 8.09466C54.8138 9.66248 59.5646 12.4837 63.4366 16.3118C67.3087 20.1399 70.184 24.8581 71.8113 30.0542C73.4385 35.2502 73.7682 40.7657 72.7714 46.1185C71.7746 51.4714 69.4817 56.4986 66.0932 60.7606C62.7047 65.0225 58.3238 68.3896 53.3334 70.5673M6.6667 40.0006C6.6667 44.378 7.52889 48.7126 9.20405 52.7568C10.8792 56.801 13.3345 60.4756 16.4298 63.5709C19.5251 66.6662 23.1997 69.1215 27.2439 70.7966C31.2881 72.4718 35.6226 73.334 40 73.334L40 40.0006H6.6667Z" stroke="#DA291C" stroke-width="4" stroke-linecap="round" stroke-linejoin="round"/>
</svg>
