<svg width="80" height="80" viewBox="0 0 80 80" fill="none" xmlns="http://www.w3.org/2000/svg">
<path d="M27.0333 70.7007C22.0184 68.5801 17.5993 65.2633 14.1623 61.0403C10.7254 56.8173 8.37522 51.8166 7.31737 46.4755C6.25952 41.1344 6.52617 35.6154 8.09399 30.4012C9.66181 25.1869 12.4831 20.4361 16.3111 16.5641C20.1392 12.6921 24.8575 9.81674 30.0535 8.18948C35.2495 6.56221 40.765 6.23256 46.1179 7.22935C51.4707 8.22614 56.4979 10.519 60.7599 13.9075C65.0219 17.296 68.3889 21.677 70.5666 26.6674M40 73.334C44.3774 73.334 48.7119 72.4718 52.7561 70.7967C56.8003 69.1215 60.4749 66.6662 63.5702 63.5709C66.6655 60.4756 69.1208 56.801 70.796 52.7568C72.4711 48.7126 73.3333 44.3781 73.3333 40.0007H40L40 73.334Z" stroke="#DA291C" stroke-width="4" stroke-linecap="round" stroke-linejoin="round"/>
</svg>
