<svg width="80" height="80" viewBox="0 0 80 80" fill="none" xmlns="http://www.w3.org/2000/svg">
<path d="M52.9666 9.29931C57.9816 11.4199 62.4007 14.7367 65.8376 18.9597C69.2746 23.1827 71.6247 28.1834 72.6826 33.5245C73.7404 38.8656 73.4738 44.3846 71.906 49.5988C70.3381 54.8131 67.5169 59.5639 63.6888 63.4359C59.8608 67.3079 55.1425 70.1833 49.9465 71.8105C44.7504 73.4378 39.2349 73.7674 33.8821 72.7706C28.5292 71.7739 23.5021 69.481 19.2401 66.0925C14.9781 62.704 11.611 58.323 9.43329 53.3326M40 6.66597C35.6226 6.66597 31.288 7.52816 27.2438 9.20332C23.1997 10.8785 19.525 13.3338 16.4297 16.4291C13.3344 19.5244 10.8791 23.199 9.20398 27.2432C7.52882 31.2874 6.66663 35.6219 6.66663 39.9993H40L40 6.66597Z" stroke="#DA291C" stroke-width="4" stroke-linecap="round" stroke-linejoin="round"/>
</svg>
