<svg width="80" height="80" viewBox="0 0 80 80" fill="none" xmlns="http://www.w3.org/2000/svg">
<path d="M70.7 52.966C68.5794 57.981 65.2626 62.4001 61.0396 65.837C56.8166 69.274 51.8159 71.6241 46.4748 72.682C41.1337 73.7398 35.6148 73.4732 30.4005 71.9053C25.1863 70.3375 20.4354 67.5163 16.5634 63.6882C12.6914 59.8601 9.81607 55.1419 8.1888 49.9458C6.56154 44.7498 6.23189 39.2343 7.22868 33.8815C8.22547 28.5286 10.5183 23.5014 13.9068 19.2394C17.2953 14.9775 21.6763 11.6104 26.6667 9.43268M73.3334 39.9994C73.3334 35.622 72.4712 31.2874 70.796 27.2432C69.1209 23.199 66.6655 19.5244 63.5703 16.4291C60.475 13.3338 56.8003 10.8785 52.7561 9.20336C48.712 7.52821 44.3774 6.66602 40 6.66602V39.9994H73.3334Z" stroke="#DA291C" stroke-width="4" stroke-linecap="round" stroke-linejoin="round"/>
</svg>
