<svg width="80" height="80" viewBox="0 0 80 80" fill="none" xmlns="http://www.w3.org/2000/svg">
<path d="M54.5526 31.6852L25 14.2333M70 43.4999V26.6666C69.9988 25.4975 69.6902 24.3493 69.1051 23.3372M69.1051 23.3372C68.5201 22.325 67.6791 21.4845 66.6667 20.9L43.3333 7.56663C42.3199 6.9815 41.1702 6.67346 40 6.67346C38.8298 6.67346 37.6801 6.9815 36.6667 7.56663L13.3333 20.9C12.3209 21.4845 11.4799 22.325 10.8949 23.3372M69.1051 23.3372L40 40.0333L10.8949 23.3372M10.8949 23.3372C10.3098 24.3493 10.0012 25.4975 10 26.6666V53.3333C10.0012 54.5024 10.3098 55.6506 10.8949 56.6627C11.4799 57.6749 12.3209 58.5154 13.3333 59.1L36.6667 72.4333C37.6801 73.0184 38.8298 73.3265 40 73.3265M40 73.3265C41.1702 73.3265 42.3199 73.0184 43.3333 72.4333L56.5 64.9999M40 73.3265V40" stroke="#1E1E1E" stroke-width="4" stroke-linecap="round" stroke-linejoin="round"/>
<path d="M65 50V55M65 60H65.0125M77.5 55C77.5 61.9036 71.9036 67.5 65 67.5C58.0964 67.5 52.5 61.9036 52.5 55C52.5 48.0964 58.0964 42.5 65 42.5C71.9036 42.5 77.5 48.0964 77.5 55Z" stroke="#DA291C" stroke-width="4" stroke-linecap="round" stroke-linejoin="round"/>
</svg>
