<svg width="30" height="26" viewBox="0 0 30 26" fill="none" xmlns="http://www.w3.org/2000/svg">
<path d="M1.25 2.99997V10.5M1.25 10.5H8.75M1.25 10.5L7.05 5.04997C8.39343 3.70586 10.0555 2.72398 11.881 2.19594C13.7066 1.6679 15.6361 1.61091 17.4896 2.0303C19.3432 2.44968 21.0602 3.33176 22.4807 4.59425C23.9011 5.85673 24.9785 7.45845 25.6125 9.24997M28.75 23V15.5M28.75 15.5H21.25M28.75 15.5L22.95 20.95C21.6066 22.2941 19.9445 23.276 18.119 23.804C16.2934 24.332 14.3639 24.389 12.5104 23.9697C10.6568 23.5503 8.93975 22.6682 7.51933 21.4057C6.09892 20.1432 5.02146 18.5415 4.3875 16.75" stroke="black" stroke-opacity="0.5" stroke-width="2" stroke-linecap="round" stroke-linejoin="round"/>
</svg>
