<svg width="80" height="80" viewBox="0 0 80 80" fill="none" xmlns="http://www.w3.org/2000/svg">
<path d="M3.33334 3.3335H16.6667L25.6 47.9668C25.9048 49.5015 26.7397 50.88 27.9585 51.8612C29.1773 52.8423 30.7023 53.3635 32.2667 53.3335H64.6667C66.231 53.3635 67.7561 52.8423 68.9749 51.8612C70.1936 50.88 71.0285 49.5015 71.3333 47.9668L76.6667 20.0002H20M33.3333 70.0002C33.3333 71.8411 31.841 73.3335 30 73.3335C28.1591 73.3335 26.6667 71.8411 26.6667 70.0002C26.6667 68.1592 28.1591 66.6668 30 66.6668C31.841 66.6668 33.3333 68.1592 33.3333 70.0002ZM70 70.0002C70 71.8411 68.5076 73.3335 66.6667 73.3335C64.8257 73.3335 63.3333 71.8411 63.3333 70.0002C63.3333 68.1592 64.8257 66.6668 66.6667 66.6668C68.5076 66.6668 70 68.1592 70 70.0002Z" stroke="#DA291C" stroke-width="4" stroke-linecap="round" stroke-linejoin="round"/>
</svg>
