<svg width="80" height="80" viewBox="0 0 80 80" fill="none" xmlns="http://www.w3.org/2000/svg">
<path d="M53.3333 53.3333V10H3.33333V53.3333H53.3333ZM53.3333 53.3333H76.6667V36.6667L66.6667 26.6667H53.3333V53.3333ZM26.6667 61.6667C26.6667 66.269 22.9357 70 18.3333 70C13.731 70 10 66.269 10 61.6667C10 57.0643 13.731 53.3333 18.3333 53.3333C22.9357 53.3333 26.6667 57.0643 26.6667 61.6667ZM70 61.6667C70 66.269 66.269 70 61.6667 70C57.0643 70 53.3333 66.269 53.3333 61.6667C53.3333 57.0643 57.0643 53.3333 61.6667 53.3333C66.269 53.3333 70 57.0643 70 61.6667Z" stroke="#DA291C" stroke-width="4" stroke-linecap="round" stroke-linejoin="round"/>
</svg>
