<svg width="288" height="56" viewBox="0 0 288 56" fill="none" xmlns="http://www.w3.org/2000/svg">
<rect x="287.5" width="56" height="8" transform="rotate(90 287.5 0)" fill="#DA291C"/>
<rect x="274.483" width="56" height="3" transform="rotate(90 274.483 0)" fill="#DA291C"/>
<rect x="266.466" width="56" height="5" transform="rotate(90 266.466 0)" fill="#DA291C"/>
<rect x="256.448" width="56" height="1" transform="rotate(90 256.448 0)" fill="#DA291C"/>
<rect x="250.431" width="56" height="3" transform="rotate(90 250.431 0)" fill="#DA291C"/>
<rect x="242.414" width="56" height="8" transform="rotate(90 242.414 0)" fill="#DA291C"/>
<rect x="229.397" width="56" height="3" transform="rotate(90 229.397 0)" fill="#DA291C"/>
<rect x="221.379" width="56" height="5" transform="rotate(90 221.379 0)" fill="#DA291C"/>
<rect x="211.362" width="56" height="4" transform="rotate(90 211.362 0)" fill="#DA291C"/>
<rect x="202.345" width="56" height="5" transform="rotate(90 202.345 0)" fill="#DA291C"/>
<rect x="192.328" width="56" height="8" transform="rotate(90 192.328 0)" fill="#DA291C"/>
<rect x="179.31" width="56" height="1" transform="rotate(90 179.31 0)" fill="#DA291C"/>
<rect x="173.293" width="56" height="5" transform="rotate(90 173.293 0)" fill="#DA291C"/>
<rect x="163.276" width="56" height="3" transform="rotate(90 163.276 0)" fill="#DA291C"/>
<rect x="155.259" width="56" height="8" transform="rotate(90 155.259 0)" fill="#DA291C"/>
<rect x="142.241" width="56" height="3" transform="rotate(90 142.241 0)" fill="#DA291C"/>
<rect x="134.224" width="56" height="5" transform="rotate(90 134.224 0)" fill="#DA291C"/>
<rect x="124.207" width="56" height="5" transform="rotate(90 124.207 0)" fill="#DA291C"/>
<rect x="114.19" width="56" height="3" transform="rotate(90 114.19 0)" fill="#DA291C"/>
<rect x="106.172" width="56" height="8" transform="rotate(90 106.172 0)" fill="#DA291C"/>
<rect x="93.1552" width="56" height="3" transform="rotate(90 93.1552 0)" fill="#DA291C"/>
<rect x="85.1379" width="56" height="5" transform="rotate(90 85.1379 0)" fill="#DA291C"/>
<rect x="75.1207" width="56" height="5" transform="rotate(90 75.1207 0)" fill="#DA291C"/>
<rect x="65.1034" width="56" height="8" transform="rotate(90 65.1034 0)" fill="#DA291C"/>
<rect x="52.0862" width="56" height="3" transform="rotate(90 52.0862 0)" fill="#DA291C"/>
<rect x="44.069" width="56" height="8" transform="rotate(90 44.069 0)" fill="#DA291C"/>
<rect x="31.0517" width="56" height="3" transform="rotate(90 31.0517 0)" fill="#DA291C"/>
<rect x="23.0345" width="56" height="5" transform="rotate(90 23.0345 0)" fill="#DA291C"/>
<rect x="13.0172" width="56" height="5" transform="rotate(90 13.0172 0)" fill="#DA291C"/>
<rect x="3" width="56" height="3" transform="rotate(90 3 0)" fill="#DA291C"/>
</svg>
