<svg width="30" height="30" viewBox="0 0 30 30" fill="none" xmlns="http://www.w3.org/2000/svg">
<path fill-rule="evenodd" clip-rule="evenodd" d="M15.6364 1C15.6364 0.447715 15.1886 0 14.6364 0C14.0841 0 13.6364 0.447715 13.6364 1V6.45455C13.6364 7.00683 14.0841 7.45455 14.6364 7.45455C15.1886 7.45455 15.6364 7.00683 15.6364 6.45455V1ZM5.70256 4.28835C5.31204 3.89782 4.67887 3.89782 4.28835 4.28835C3.89782 4.67887 3.89782 5.31204 4.28835 5.70256L8.14744 9.56165C8.53796 9.95218 9.17113 9.95218 9.56165 9.56165C9.95218 9.17113 9.95218 8.53796 9.56165 8.14744L5.70256 4.28835ZM24.9844 5.70256C25.3749 5.31204 25.3749 4.67887 24.9844 4.28835C24.5939 3.89782 23.9607 3.89782 23.5702 4.28835L19.7111 8.14744C19.3206 8.53796 19.3206 9.17113 19.7111 9.56165C20.1016 9.95218 20.7348 9.95218 21.1253 9.56165L24.9844 5.70256ZM1 13.6364C0.447715 13.6364 0 14.0841 0 14.6364C0 15.1886 0.447715 15.6364 1 15.6364H6.45455C7.00683 15.6364 7.45455 15.1886 7.45455 14.6364C7.45455 14.0841 7.00683 13.6364 6.45455 13.6364H1ZM22.8168 15.6364H17.0506L21.1253 19.7111L24.9844 23.5702L28.9798 27.5656C29.3704 27.9561 29.3704 28.5893 28.9798 28.9798C28.5893 29.3704 27.9561 29.3704 27.5656 28.9798L23.5702 24.9844L19.7111 21.1253L15.6364 17.0506V22.8168C15.6364 22.8173 15.6364 22.8177 15.6364 22.8182V28.2727C15.6364 28.825 15.1886 29.2727 14.6364 29.2727C14.0841 29.2727 13.6364 28.825 13.6364 28.2727V22.8182L13.6364 14.6364C13.6364 14.0841 14.0841 13.6364 14.6364 13.6364L22.8182 13.6364H28.2727C28.7905 13.6364 29.2164 14.0299 29.2676 14.5341C29.271 14.5677 29.2727 14.6018 29.2727 14.6364C29.2727 15.1886 28.825 15.6364 28.2727 15.6364H22.8182C22.8177 15.6364 22.8173 15.6364 22.8168 15.6364ZM9.56165 21.1253C9.95218 20.7348 9.95218 20.1016 9.56165 19.7111C9.17113 19.3206 8.53796 19.3206 8.14744 19.7111L4.28835 23.5702C3.89782 23.9607 3.89782 24.5939 4.28835 24.9844C4.67887 25.3749 5.31204 25.3749 5.70256 24.9844L9.56165 21.1253Z" fill="black" fill-opacity="0.5"/>
</svg>
