<svg width="81" height="80" viewBox="0 0 81 80" fill="none" xmlns="http://www.w3.org/2000/svg">
<path d="M25.75 31.3337L55.75 14.0337M69.85 23.2003L40.75 40.0337L11.65 23.2003M40.75 73.6003V40.0003M10.75 53.3337V26.667C10.7512 25.4979 11.0598 24.3497 11.6449 23.3375C12.2299 22.3254 13.0709 21.4849 14.0833 20.9003L37.4167 7.56699C38.4301 6.98187 39.5798 6.67383 40.75 6.67383C41.9202 6.67383 43.0699 6.98187 44.0833 7.56699L67.4167 20.9003C68.4291 21.4849 69.2701 22.3254 69.8551 23.3375C70.4402 24.3497 70.7488 25.4979 70.75 26.667V53.3337C70.7488 54.5027 70.4402 55.651 69.8551 56.6631C69.2701 57.6753 68.4291 58.5158 67.4167 59.1003L44.0833 72.4337C43.0699 73.0188 41.9202 73.3268 40.75 73.3268C39.5798 73.3268 38.4301 73.0188 37.4167 72.4337L14.0833 59.1003C13.0709 58.5158 12.2299 57.6753 11.6449 56.6631C11.0598 55.651 10.7512 54.5027 10.75 53.3337Z" stroke="#DA291C" stroke-width="4" stroke-linecap="round" stroke-linejoin="round"/>
</svg>
