<svg width="81" height="80" viewBox="0 0 81 80" fill="none" xmlns="http://www.w3.org/2000/svg">
<path d="M57.4167 70V63.3333C57.4167 59.7971 56.0119 56.4057 53.5114 53.9052C51.0109 51.4048 47.6196 50 44.0833 50H17.4167C13.8805 50 10.4891 51.4048 7.98859 53.9052C5.4881 56.4057 4.08334 59.7971 4.08334 63.3333V70M77.4167 70V63.3333C77.4145 60.3791 76.4312 57.5092 74.6212 55.1744C72.8113 52.8395 70.2771 51.1719 67.4167 50.4333M54.0833 10.4333C56.9514 11.1677 59.4935 12.8357 61.3088 15.1744C63.1241 17.5131 64.1095 20.3894 64.1095 23.35C64.1095 26.3106 63.1241 29.1869 61.3088 31.5256C59.4935 33.8643 56.9514 35.5323 54.0833 36.2667M44.0833 23.3333C44.0833 30.6971 38.1138 36.6667 30.75 36.6667C23.3862 36.6667 17.4167 30.6971 17.4167 23.3333C17.4167 15.9695 23.3862 10 30.75 10C38.1138 10 44.0833 15.9695 44.0833 23.3333Z" stroke="#DA291C" stroke-width="4" stroke-linecap="round" stroke-linejoin="round"/>
</svg>
